<?xml version="1.0" encoding="utf-8"?>

<!-- License Agreement at http://iconmonstr.com/license/ -->

<!DOCTYPE svg PUBLIC "-//W3C//DTD SVG 1.1//EN" "http://www.w3.org/Graphics/SVG/1.1/DTD/svg11.dtd">
<svg version="1.1" xmlns="http://www.w3.org/2000/svg" xmlns:xlink="http://www.w3.org/1999/xlink" x="0px" y="0px"
	 width="512px" height="512px" viewBox="0 0 512 512" enable-background="new 0 0 512 512" xml:space="preserve">
<path id="menu-9-icon" d="M256,50C142.229,50,50,142.229,50,256c0,113.771,92.229,206,206,206s206-92.229,206-206
	C462,142.229,369.771,50,256,50z M152.625,290.645c-19.135,0-34.645-15.511-34.645-34.645s15.51-34.645,34.645-34.645
	c19.133,0,34.643,15.511,34.643,34.645S171.758,290.645,152.625,290.645z M256,290.645c-19.134,0-34.645-15.511-34.645-34.645
	s15.511-34.645,34.645-34.645c19.133,0,34.645,15.511,34.645,34.645S275.133,290.645,256,290.645z M359.375,290.645
	c-19.133,0-34.643-15.511-34.643-34.645s15.51-34.645,34.643-34.645c19.135,0,34.645,15.511,34.645,34.645
	S378.51,290.645,359.375,290.645z"/>
</svg>
